<?xml version="1.0" encoding="utf-8"?>
<!-- Generator: Adobe Illustrator 16.0.0, SVG Export Plug-In . SVG Version: 6.00 Build 0)  -->
<!DOCTYPE svg PUBLIC "-//W3C//DTD SVG 1.1//EN" "http://www.w3.org/Graphics/SVG/1.1/DTD/svg11.dtd">
<svg version="1.1" id="Layer_1" xmlns:sketch="http://www.bohemiancoding.com/sketch/ns"
	 xmlns="http://www.w3.org/2000/svg" xmlns:xlink="http://www.w3.org/1999/xlink" x="0px" y="0px" width="72px" height="120px"
	 viewBox="24 -24 72 120" enable-background="new 24 -24 72 120" xml:space="preserve">
<title>Rectangle 16</title>
<desc>Created with Sketch.</desc>
<g id="Page-1" sketch:type="MSPage">
	<path id="Rectangle-16" sketch:type="MSShapeGroup" fill="#3BADC6" d="M84.032,90c6.64,0,12.052-5.365,12.052-11.984v-90.031
		C96.084-18.654,90.688-24,84.032-24H36.135c-6.639,0-12.051,5.365-12.051,11.984v90.031C24.084,84.654,29.479,90,36.135,90h11.949
		c0,3.337,2.711,6,6.057,6h11.887c3.396,0,6.057-2.687,6.057-6H84.032z M84.111-18c3.299,0,5.973,2.729,5.973,6v90
		c0,3.314-2.734,6-5.973,6H36.057c-3.299,0-5.973-2.729-5.973-6v-90c0-3.314,2.734-6,5.973-6H84.111L84.111-18z"/>
</g>
</svg>
