<?xml version="1.0" encoding="utf-8"?>
<!-- Generator: Adobe Illustrator 16.0.0, SVG Export Plug-In . SVG Version: 6.00 Build 0)  -->
<!DOCTYPE svg PUBLIC "-//W3C//DTD SVG 1.1//EN" "http://www.w3.org/Graphics/SVG/1.1/DTD/svg11.dtd">
<svg version="1.1" id="Layer_1" xmlns:sketch="http://www.bohemiancoding.com/sketch/ns"
	 xmlns="http://www.w3.org/2000/svg" xmlns:xlink="http://www.w3.org/1999/xlink" x="0px" y="0px" width="72px" height="120px"
	 viewBox="24 -24 72 120" enable-background="new 24 -24 72 120" xml:space="preserve">
<title>Rectangle 16</title>
<desc>Created with Sketch.</desc>
<g id="Page-1" sketch:type="MSPage">
	<path id="Rectangle-16" sketch:type="MSShapeGroup" fill="#3BADC6" d="M36.135-18c-6.64,0-12.052,5.365-12.052,11.984v90.031
		C24.083,90.654,29.479,96,36.135,96h47.897c6.639,0,12.051-5.365,12.051-11.984V-6.016C96.083-12.654,90.688-18,84.032-18H72.083
		c0-3.337-2.711-6-6.057-6H54.14c-3.396,0-6.057,2.687-6.057,6H36.135z M36.056,90c-3.299,0-5.973-2.729-5.973-6V-6
		c0-3.314,2.734-6,5.973-6H84.11c3.299,0,5.973,2.729,5.973,6v90c0,3.314-2.734,6-5.973,6H36.056L36.056,90z"/>
</g>
<path fill="#3BADC6" d="M87.813,82.448c0,2.79-2.284,5.052-5.104,5.052H37.458c-2.819,0-5.104-2.262-5.104-5.052v-87.23
	c0-2.79,2.285-5.052,5.104-5.052h45.251c2.819,0,5.104,2.262,5.104,5.052V82.448z"/>
</svg>
