<?xml version="1.0" encoding="UTF-8" standalone="no"?>
<svg width="224px" height="224px" viewBox="0 0 224 224" version="1.1" xmlns="http://www.w3.org/2000/svg" xmlns:xlink="http://www.w3.org/1999/xlink" xmlns:sketch="http://www.bohemiancoding.com/sketch/ns">
    <!-- Generator: Sketch 3.3 (11970) - http://www.bohemiancoding.com/sketch -->
    <title>Group</title>
    <desc>Created with Sketch.</desc>
    <defs></defs>
    <g id="Page-1" stroke="none" stroke-width="1" fill="none" fill-rule="evenodd" sketch:type="MSPage">
        <g id="Group" sketch:type="MSLayerGroup">
            <circle id="Oval-5" stroke="#3BACC6" stroke-width="7" stroke-dasharray="2,6" opacity="0.2" sketch:type="MSShapeGroup" cx="112" cy="112" r="112"></circle>
            <path d="M102,99 L102,101 L122,101 L122,99 L102,99 Z M72,87 L72,89 L152,89 L152,87 L72,87 Z M102,75 L102,77 L122,77 L122,75 L102,75 Z M62,63 L62,65 L162,65 L162,63 L62,63 Z" id="Rectangle-20" opacity="0.2" fill="#FFFFFF" sketch:type="MSShapeGroup"></path>
            <path d="M102,159 L102,161 L122,161 L122,159 L102,159 Z M72,147 L72,149 L152,149 L152,147 L72,147 Z M102,135 L102,137 L122,137 L122,135 L102,135 Z M62,123 L62,125 L162,125 L162,123 L62,123 Z" id="Rectangle-21" opacity="0.2" fill="#FFFFFF" sketch:type="MSShapeGroup" transform="translate(112.000000, 142.000000) scale(1, -1) translate(-112.000000, -142.000000) "></path>
            <path d="M87,115 L52,115 L52,110 L89.5,110 L92,110 L92,125 L87,125 L87,115 L87,115 Z M132,112.5 L132,110 L172,110 L172,115 L137,115 L137,125 L132,125 L132,112.5 Z M109,110 L109,115 L114,115 L114,110 L109,110 Z" id="Rectangle-28" fill="#0D141B" sketch:type="MSShapeGroup"></path>
            <path d="M110,110.5 L110,49 L113,49 L113,110.5 L124.5,110.5 L124.5,113.5 L113,113.5 L113,175 L110,175 L110,113.5 L98.5,113.5 L98.5,110.5 L110,110.5 Z" id="Rectangle-33" fill="#FFFFFF" sketch:type="MSShapeGroup"></path>
        </g>
    </g>
</svg>