<?xml version="1.0" encoding="UTF-8" standalone="no"?>
<svg width="100px" height="83px" viewBox="0 0 100 83" version="1.1" xmlns="http://www.w3.org/2000/svg" xmlns:xlink="http://www.w3.org/1999/xlink" xmlns:sketch="http://www.bohemiancoding.com/sketch/ns">
    <!-- Generator: Sketch 3.3 (11970) - http://www.bohemiancoding.com/sketch -->
    <title>NASA_logo</title>
    <desc>Created with Sketch.</desc>
    <defs></defs>
    <g id="Page-1" stroke="none" stroke-width="1" fill="none" fill-rule="evenodd" sketch:type="MSPage">
        <g id="NASA_logo" sketch:type="MSLayerGroup">
            <path d="M87.5909091,41.5 C87.5909091,64.225822 68.9776224,82.929661 46.3601399,82.929661 C23.743007,82.929661 5.12937063,64.2247669 5.12937063,41.5 C5.12937063,18.7727712 23.3076923,0.0703389831 46.3601399,0.0703389831 C68.5409091,0.0703389831 87.5909091,18.7738263 87.5909091,41.5" id="Shape" fill="#1A5DAD" sketch:type="MSShapeGroup"></path>
            <path d="M55.6608392,63.3050847 C73.2758741,70.5936102 70.2188811,52.1749958 60.8293706,38.0720297 C55.5076923,30.0822246 48.5671329,23.4256949 44.1895105,20.2129619 C29.6744755,9.55730932 20.713986,16.0200551 30.9636364,37.0345297 C34.2775175,43.8289237 38.5339161,48.4146737 41.8583916,52.7370042 C44.3972028,56.0368873 49.3423077,57.6892203 47.6003497,59.2553178 C45.6372727,61.0210725 40.8839161,53.2328941 40.8839161,53.2328941 C37.3734266,48.9738686 34.0272727,44.4299703 30.5786713,38.1944195 C22.6993007,23.9511271 23.8353147,9.41416949 38.0972028,15.7464364 C50.2003497,21.1231483 61.7608392,36.2031229 66.4087413,46.9122331 C68.5556294,51.8567119 74.4087413,71.4225551 55.7664336,63.5122331" id="Shape" fill="#FFFFFF" sketch:type="MSShapeGroup"></path>
            <path d="M0.883216783,53.7811864 C8.63251748,48.5901695 15.9797203,45.2385169 28.4828671,41.085 C46.0524476,35.2468644 59.2762238,31.3226525 75.5003497,23.1197203 C82.7625874,19.4487288 95.363986,11.2159025 99.870979,4.05855932 C98.5213287,6.82850847 94.343007,12.2199915 92.4513986,14.6048347 C70.4374126,42.33 23.5458042,40.7579237 1.19265734,54.0685212" id="Shape" fill="#EE293D" sketch:type="MSShapeGroup"></path>
            <path d="M12.1251748,33.5175805 C19.2174825,33.5735563 18.5216783,33.5032595 18.6045455,33.5868292 C18.728521,33.5868292 24.2674825,43.1817699 24.2674825,43.2644182 C24.2674825,43.3054153 24.2260699,39.8547008 24.2260699,35.5390877 C24.2260699,35.0406657 22.8626084,33.5870051 22.9033776,33.5870051 C24.9277133,33.5870051 27.5736573,33.6286598 27.5736573,33.6286598 C26.5822587,34.7916797 26.3842168,34.6963001 26.375965,35.4149183 C26.3480105,37.7261166 26.3218811,41.9972403 26.375965,46.7950624 C26.3836713,47.5142081 26.9134126,47.7918713 27.7813497,49.038067 L21.2911399,49.038067 C19.1830629,45.5077535 15.3201608,38.8849865 15.3393916,38.9036264 C15.3690455,38.9339776 15.2561748,43.0578467 15.3797587,46.3796052 C15.4215629,47.477456 15.9175909,47.8331603 16.827486,48.8304967 C16.827486,48.8304967 17.8740245,48.8022556 11.7428706,48.8716239 C13.6028706,47.874815 13.3558427,46.6290061 13.3549336,46.5874709 C13.288049,41.9971489 13.3410874,38.0725853 13.3410874,35.5389752 C13.3410874,35.1237642 13.313,35.1647366 12.0322413,33.5868925" id="Shape" fill="#FFFFFF" sketch:type="MSShapeGroup"></path>
            <path d="M34.3006993,40.6066949 C34.8962587,38.5272636 35.404965,36.6687669 35.6463986,35.457178 C35.6872867,35.2493017 35.1917832,34.5020097 34.4063986,33.7540953 L34.3507483,33.6380677 C38.1378112,33.6504192 42.0941049,33.6709195 42.0941049,33.6709195 C43.1274615,36.2046 45.4834755,43.3063051 47.2608881,47.6676737 C47.7309231,48.8204593 48.5423217,49.038053 48.5423217,49.038053 C45.3181958,48.9970559 39.334979,49.0247941 39.3667972,48.9970559 C40.9783357,47.5424457 40.7716573,47.5424457 40.068965,45.4248906 L35.0266573,45.4248906 C33.9933007,47.8332271 35.3486783,48.9639966 35.5221818,48.9552042 C34.3745245,49.0147286 30.4798741,48.9552042 30.4798741,48.9552042 C32.587951,47.4594809 32.4634755,47.0031216 32.4634755,47.0031216 C33.0427063,44.9309351 33.7136853,42.6607444 34.301028,40.6054394 L36.3698042,40.6057911 C35.9253636,42.0395106 35.480958,43.4720343 35.480958,43.4720343 L39.4914476,43.4720343 L37.2588601,37.7401106 C29.1668007,-0.703389831 36.8144196,39.1731618 36.3698741,40.6057207 L34.3010979,40.605369" id="Shape" fill="#FFFFFF" sketch:type="MSShapeGroup"></path>
            <path d="M68.9405594,40.8141949 C69.534965,38.7352911 70.0443007,36.8762669 70.2852098,35.6639746 C70.3259685,35.4571498 69.8299301,34.7098614 69.0450699,33.9614195 L68.989028,33.8459194 C72.7771399,33.8582709 76.7344825,33.8787712 76.7344825,33.8787712 C77.7662657,36.4124517 80.1228042,43.5145085 81.8998671,47.8755254 C82.3693776,49.0288386 83.1807762,49.2464322 83.1807762,49.2464322 C79.9582238,49.2043836 73.9748322,49.2331733 74.0056014,49.2043836 C75.6181888,47.751356 75.4115105,47.751356 74.7088182,45.6329217 L69.6654615,45.6329217 C68.632,48.0417505 69.9868287,49.1720276 70.1604266,49.1639386 C69.0137133,49.2229355 65.1184685,49.1639386 65.1184685,49.1639386 C67.226021,47.6682153 67.1024545,47.2113285 67.1024545,47.2113285 C67.6816853,45.1387552 68.3527692,42.8693031 68.9406364,40.8143497 L71.0088881,40.8143497 C70.5634336,42.2479285 70.120951,43.6809797 70.120951,43.6809797 L74.1293427,43.6809797 L71.8968951,37.949056 C-0.664335664,-0.703389831 71.4538881,39.3815797 71.008958,40.8142442 L68.9407063,40.8142442" id="Shape" fill="#FFFFFF" sketch:type="MSShapeGroup"></path>
            <path d="M62.4195804,37.4097881 C62.3368846,34.4599822 62.4195804,33.5049195 62.4195804,33.5049195 C61.1376224,34.5437911 61.7843007,34.4113076 58.5758741,33.8790174 C49.3293706,32.3443966 48.6248252,41.0272165 53.6566434,42.974903 C57.8804196,44.6101788 59.3772727,44.9305377 58.7402098,46.4632242 C58.533542,46.9626661 54.6898601,48.7899322 50.7223776,45.0932318 L50.804028,50.2434521 C51.300042,49.729661 52.6650769,48.789897 52.6650769,48.789897 C52.7058357,48.789897 56.9657762,50.677725 60.807035,48.7061936 C66.7189231,45.6747593 63.7683287,40.767736 57.4594476,38.8214564 C52.2097972,37.2014089 57.1700839,33.4215326 62.3776294,37.4509364" id="Shape" fill="#FFFFFF" sketch:type="MSShapeGroup"></path>
            <path d="M46.9405594,3.83277119 C46.9405594,4.01857161 46.7895455,4.17099619 46.6048217,4.17099619 C46.4211469,4.17099619 46.2690839,4.01857161 46.2690839,3.83277119 C46.2690839,3.64854636 46.4211469,3.49559424 46.6048217,3.49559424 C46.7895455,3.49559424 46.9405594,3.64854636 46.9405594,3.83277119" id="Shape" fill="#FFFFFF" sketch:type="MSShapeGroup"></path>
            <path d="M49.2692308,8.94711864 C49.2692308,9.17496771 49.0813741,9.36232966 48.8559091,9.36232966 C48.6288636,9.36232966 48.4420629,9.17495364 48.4420629,8.94711864 C48.4420629,8.7197936 48.6288741,8.5324 48.8559091,8.5324 C49.0813881,8.5324 49.2692308,8.71977953 49.2692308,8.94711864" id="Shape" fill="#FFFFFF" sketch:type="MSShapeGroup"></path>
            <path d="M55.3111888,17.3055 C55.3111888,17.5329552 55.1250315,17.720711 54.8978671,17.720711 C54.6718636,17.720711 54.4845455,17.5329376 54.4845455,17.3055 C54.4845455,17.0776509 54.6580315,16.8897614 54.8852098,16.8897614 C55.1122552,16.8897614 55.3112238,17.077665 55.3112238,17.3055" id="Shape" fill="#FFFFFF" sketch:type="MSShapeGroup"></path>
            <path d="M45.5979021,11.8285551 C45.5979021,12.0138315 45.4468846,12.1657285 45.2621643,12.1657285 C45.0778357,12.1657285 44.9257727,12.013828 44.9257727,11.8285551 C44.9257727,11.6436726 45.0778357,11.490724 45.2621643,11.490724 C45.4468846,11.490724 45.5979021,11.6436761 45.5979021,11.8285551" id="Shape" fill="#FFFFFF" sketch:type="MSShapeGroup"></path>
            <path d="M49.2167832,13.7498644 C49.2167832,13.9340892 49.0651154,14.0870378 48.8814406,14.0870378 C48.6972413,14.0870378 48.5451783,13.9340857 48.5451783,13.7498644 C48.5451783,13.5651156 48.6972413,13.4125573 48.8814406,13.4125573 C49.0651154,13.4125573 49.2167832,13.5651156 49.2167832,13.7498644" id="Shape" fill="#FFFFFF" sketch:type="MSShapeGroup"></path>
            <path d="M44.513986,8.37561441 C44.513986,8.6035936 44.3273042,8.79082542 44.1006643,8.79082542 C43.8741399,8.79082542 43.6873427,8.60357953 43.6873427,8.37561441 C43.6873427,8.14776534 43.8741538,7.95987585 44.1006643,7.95987585 C44.3273182,7.95987585 44.513986,8.14777941 44.513986,8.37561441" id="Shape" fill="#FFFFFF" sketch:type="MSShapeGroup"></path>
            <path d="M39.0384615,11.7248051 C39.0384615,11.9100815 38.8869231,12.0625061 38.7022028,12.0625061 C38.5180035,12.0625061 38.366465,11.9100815 38.366465,11.7248051 C38.366465,11.5399226 38.5180035,11.386974 38.7022028,11.386974 C38.8869231,11.386974 39.0384615,11.5399261 39.0384615,11.7248051" id="Shape" fill="#FFFFFF" sketch:type="MSShapeGroup"></path>
            <path d="M40.0174825,12.3990042 C40.0174825,12.5849383 39.8659441,12.7373629 39.6812238,12.7373629 C39.4970245,12.7373629 39.344965,12.5849383 39.344965,12.3990042 C39.344965,12.2142554 39.4970245,12.0623548 39.6812238,12.0623548 C39.8659441,12.0623548 40.0174825,12.2142554 40.0174825,12.3990042" id="Shape" fill="#FFFFFF" sketch:type="MSShapeGroup"></path>
            <path d="M41,13.0742585 C41,13.2600589 40.848458,13.4124835 40.6641294,13.4124835 C40.4799336,13.4124835 40.3278706,13.2600589 40.3278706,13.0742585 C40.3278706,12.8900336 40.4799336,12.7376091 40.6641294,12.7376091 C40.848458,12.7376091 41,12.8900336 41,13.0742585" id="Shape" fill="#FFFFFF" sketch:type="MSShapeGroup"></path>
            <path d="M39.5034965,14.3727161 C39.5034965,14.5579925 39.3509126,14.7104171 39.1672343,14.7104171 C38.982514,14.7104171 38.8308462,14.5579925 38.8308462,14.3727161 C38.8308462,14.1879672 38.982514,14.0355427 39.1672343,14.0355427 C39.3509126,14.0355427 39.5034965,14.1879672 39.5034965,14.3727161" id="Shape" fill="#FFFFFF" sketch:type="MSShapeGroup"></path>
            <path d="M31.7006993,19.8756864 C31.7006993,20.0609628 31.5486364,20.2128634 31.3644406,20.2128634 C31.1802413,20.2128634 31.0281818,20.0609628 31.0281818,19.8756864 C31.0281818,19.69041 31.1802448,19.5378553 31.3644406,19.5378553 C31.5486399,19.5378553 31.7006993,19.6904136 31.7006993,19.8756864" id="Shape" fill="#FFFFFF" sketch:type="MSShapeGroup"></path>
            <path d="M33.1468531,21.6415466 C33.1468531,21.8264291 32.9947902,21.9788537 32.8105944,21.9788537 C32.6263951,21.9788537 32.4743357,21.8264291 32.4743357,21.6415466 C32.4743357,21.4557462 32.6263986,21.3038456 32.8105944,21.3038456 C32.9947937,21.3038456 33.1468531,21.4557462 33.1468531,21.6415466" id="Shape" fill="#FFFFFF" sketch:type="MSShapeGroup"></path>
            <path d="M31.9972028,50.144661 C31.9972028,50.3300675 31.8456643,50.4819681 31.6613357,50.4819681 C31.4771364,50.4819681 31.3255979,50.3300675 31.3255979,50.144661 C31.3255979,49.9599122 31.4771364,49.80696 31.6613357,49.80696 C31.8456643,49.80696 31.9972028,49.9599122 31.9972028,50.144661" id="Shape" fill="#FFFFFF" sketch:type="MSShapeGroup"></path>
            <path d="M32.2038462,58.0085593 C32.2038462,58.2364084 32.017035,58.423278 31.7905245,58.423278 C31.5638706,58.423278 31.3772028,58.236426 31.3772028,58.0085593 C31.3772028,57.7805801 31.5638846,57.5933483 31.7905245,57.5933483 C32.017049,57.5933483 32.2038462,57.7805942 32.2038462,58.0085593" id="Shape" fill="#FFFFFF" sketch:type="MSShapeGroup"></path>
            <path d="M27.7594406,62.0354661 C27.7594406,62.2196909 27.6079021,62.3726395 27.4242238,62.3726395 C27.2400245,62.3726395 27.087965,62.2196909 27.087965,62.0354661 C27.087965,61.8496657 27.240028,61.697635 27.4242238,61.697635 C27.6078986,61.697635 27.7594406,61.8496657 27.7594406,62.0354661" id="Shape" fill="#FFFFFF" sketch:type="MSShapeGroup"></path>
            <path d="M22.4384615,63.6673305 C22.4384615,63.8951796 22.2506049,64.0820492 22.0246154,64.0820492 C21.7979615,64.0820492 21.6112937,63.8951972 21.6112937,63.6673305 C21.6112937,63.4389539 21.7979755,63.2515919 22.0246154,63.2515919 C22.2506189,63.2515919 22.4384615,63.438968 22.4384615,63.6673305" id="Shape" fill="#FFFFFF" sketch:type="MSShapeGroup"></path>
            <path d="M21.3531469,60.034322 C21.3531469,60.2611231 21.166465,60.4490407 20.9403497,60.4490407 C20.7138252,60.4490407 20.527028,60.2611371 20.527028,60.034322 C20.527028,59.8059489 20.7138392,59.6185835 20.9403497,59.6185835 C21.1664825,59.6185835 21.3531469,59.805963 21.3531469,60.034322" id="Shape" fill="#FFFFFF" sketch:type="MSShapeGroup"></path>
            <path d="M20.7339161,62.3449576 C20.7339161,62.530234 20.5818531,62.6821346 20.3976573,62.6821346 C20.213458,62.6821346 20.0612657,62.530234 20.0612657,62.3449576 C20.0612657,62.1602088 20.213458,62.0072567 20.3976573,62.0072567 C20.5818566,62.0072567 20.7339161,62.1602088 20.7339161,62.3449576" id="Shape" fill="#FFFFFF" sketch:type="MSShapeGroup"></path>
            <path d="M16.7545455,60.4247034 C16.7545455,60.6094522 16.603007,60.7624044 16.4193287,60.7624044 C16.2346084,60.7624044 16.0829371,60.6094522 16.0829371,60.4247034 C16.0829371,60.239951 16.2346084,60.0873963 16.4193287,60.0873963 C16.6030035,60.0873963 16.7545455,60.239951 16.7545455,60.4247034" id="Shape" fill="#FFFFFF" sketch:type="MSShapeGroup"></path>
            <path d="M30.6531469,66.9134746 C30.6531469,67.0988811 30.5142797,67.2513057 30.3306049,67.2513057 C30.1464056,67.2513057 29.981542,67.0988811 29.981542,66.9134746 C29.981542,66.7287257 30.1336049,66.5757736 30.3172797,66.5757736 C30.502,66.5757736 30.6531469,66.7287257 30.6531469,66.9134746" id="Shape" fill="#FFFFFF" sketch:type="MSShapeGroup"></path>
            <path d="M34.8391608,63.8255932 C34.8391608,64.0539698 34.6656748,64.2413318 34.4384965,64.2413318 C34.211972,64.2413318 34.0124825,64.0539558 34.0124825,63.8255932 C34.0124825,63.5986656 34.1991643,63.4108746 34.4258042,63.4108746 C34.6528531,63.4108746 34.8391608,63.598648 34.8391608,63.8255932" id="Shape" fill="#FFFFFF" sketch:type="MSShapeGroup"></path>
            <path d="M35.3181818,67.7962288 C35.3181818,67.9815052 35.1527972,68.1345875 34.9696434,68.1345875 C34.7849231,68.1345875 34.6333846,67.9815052 34.6333846,67.7962288 C34.6333846,67.61148 34.7849231,67.4595794 34.9696434,67.4595794 C35.1527972,67.4595794 35.3181818,67.61148 35.3181818,67.7962288" id="Shape" fill="#FFFFFF" sketch:type="MSShapeGroup"></path>
            <path d="M52.520979,64.0049576 C52.520979,64.1898366 52.3694406,64.3427887 52.1857657,64.3427887 C52.000521,64.3427887 51.8489825,64.1898366 51.8489825,64.0049576 C51.8489825,63.8196812 52.000521,63.6677807 52.1857657,63.6677807 C52.3694406,63.6677807 52.520979,63.8196812 52.520979,64.0049576" id="Shape" fill="#FFFFFF" sketch:type="MSShapeGroup"></path>
            <path d="M44.513986,66.8607203 C44.513986,67.0459932 44.3629685,67.1978938 44.1782483,67.1978938 C43.9945699,67.1978938 43.8425105,67.0459932 43.8425105,66.8607203 C43.8425105,66.675968 43.9945699,66.5230194 44.1782483,66.5230194 C44.3629685,66.5230194 44.513986,66.675968 44.513986,66.8607203" id="Shape" fill="#FFFFFF" sketch:type="MSShapeGroup"></path>
            <path d="M66.0594406,70.965 C66.0594406,71.1497735 65.9073776,71.3022262 65.7237028,71.3022262 C65.5389825,71.3022262 65.3869196,71.1497735 65.3869196,70.965 C65.3869196,70.7796955 65.5389825,70.6272568 65.7237028,70.6272568 C65.9073776,70.6272568 66.0594406,70.7796955 66.0594406,70.965" id="Shape" fill="#FFFFFF" sketch:type="MSShapeGroup"></path>
            <path d="M67.8146853,54.9980508 C67.8146853,55.2258999 67.628528,55.4137894 67.4013636,55.4137894 C67.1743147,55.4137894 66.988042,55.2258858 66.988042,54.9980508 C66.988042,54.7700681 67.1743287,54.5823123 67.4013636,54.5823123 C67.628542,54.5823123 67.8146853,54.7700822 67.8146853,54.9980508" id="Shape" fill="#FFFFFF" sketch:type="MSShapeGroup"></path>
            <path d="M64.5104895,57.2559322 C64.5104895,57.4408112 64.358951,57.5937633 64.1737063,57.5937633 C63.9899021,57.5937633 63.8383601,57.4408112 63.8383601,57.2559322 C63.8383601,57.0706558 63.9899021,56.9187553 64.1737063,56.9187553 C64.358951,56.9187553 64.5104895,57.0706558 64.5104895,57.2559322" id="Shape" fill="#FFFFFF" sketch:type="MSShapeGroup"></path>
            <path d="M67.7657343,57.9065678 C67.7657343,58.1344169 67.5794476,58.3223064 67.3524126,58.3223064 C67.1252378,58.3223064 66.9390909,58.1344028 66.9390909,57.9065678 C66.9390909,57.6791126 67.1252517,57.4913568 67.3524126,57.4913568 C67.5794615,57.4913568 67.7657343,57.6791302 67.7657343,57.9065678" id="Shape" fill="#FFFFFF" sketch:type="MSShapeGroup"></path>
            <path d="M64.5104895,61.9299576 C64.5104895,62.1147065 64.358951,62.2671311 64.1737063,62.2671311 C63.9899021,62.2671311 63.8383601,62.1147065 63.8383601,61.9299576 C63.8383601,61.7446812 63.9899021,61.592123 64.1737063,61.592123 C64.358951,61.592123 64.5104895,61.7446812 64.5104895,61.9299576" id="Shape" fill="#FFFFFF" sketch:type="MSShapeGroup"></path>
            <path d="M72.9300699,52.7401695 C72.9300699,52.9254459 72.7780105,53.0780041 72.5942028,53.0780041 C72.410528,53.0780041 72.2589895,52.9254459 72.2589895,52.7401695 C72.2589895,52.5548966 72.410528,52.4029961 72.5942028,52.4029961 C72.7780105,52.4029961 72.9300699,52.5548966 72.9300699,52.7401695" id="Shape" fill="#FFFFFF" sketch:type="MSShapeGroup"></path>
            <path d="M73.7447552,54.7905508 C73.7447552,55.0189239 73.5723147,55.2062894 73.3452797,55.2062894 C73.1181049,55.2062894 72.9191259,55.0189099 72.9191259,54.7905508 C72.9191259,54.5625681 73.1054126,54.3758322 73.3314336,54.3758322 C73.5584825,54.3758322 73.7447552,54.5625506 73.7447552,54.7905508" id="Shape" fill="#FFFFFF" sketch:type="MSShapeGroup"></path>
            <path d="M79.5454545,57.2313136 C79.5454545,57.4591626 79.3602133,57.6465246 79.1321329,57.6465246 C78.904958,57.6465246 78.7188112,57.4591486 78.7188112,57.2313136 C78.7188112,57.0039885 78.904972,56.815575 79.1321329,56.815575 C79.3602273,56.815575 79.5454545,57.0040026 79.5454545,57.2313136" id="Shape" fill="#FFFFFF" sketch:type="MSShapeGroup"></path>
            <path d="M73.6538462,61.5677119 C73.6538462,61.7524642 73.5007378,61.9050189 73.3169336,61.9050189 C73.1332552,61.9050189 72.9811958,61.7524642 72.9811958,61.5677119 C72.9811958,61.3819114 73.1332552,61.2300109 73.3169336,61.2300109 C73.5007378,61.2300109 73.6538462,61.3819114 73.6538462,61.5677119" id="Shape" fill="#FFFFFF" sketch:type="MSShapeGroup"></path>
            <path d="M77.3741259,58.0366949 C77.3741259,58.2219678 77.2225874,58.3738683 77.0389126,58.3738683 C76.8552378,58.3738683 76.7031748,58.2219678 76.7031748,58.0366949 C76.7031748,57.8514185 76.8552378,57.6989939 77.0389126,57.6989939 C77.2225874,57.6989939 77.3741259,57.8514185 77.3741259,58.0366949" id="Shape" fill="#FFFFFF" sketch:type="MSShapeGroup"></path>
            <path d="M76.6888112,63.4879661 C76.6888112,63.6733726 76.5372727,63.8252732 76.3535979,63.8252732 C76.1683531,63.8252732 76.0168147,63.6733726 76.0168147,63.4879661 C76.0168147,63.3032172 76.1683531,63.1502651 76.3535979,63.1502651 C76.5372727,63.1502651 76.6888112,63.3032172 76.6888112,63.4879661" id="Shape" fill="#FFFFFF" sketch:type="MSShapeGroup"></path>
            <path d="M78.2657343,54.4283051 C78.2657343,54.7131815 78.0318951,54.9471958 77.7488112,54.9471958 C77.4655909,54.9471958 77.2322727,54.7131709 77.2322727,54.4283051 C77.2322727,54.1434287 77.4655909,53.9094144 77.7488112,53.9094144 C78.0319021,53.9094144 78.2657343,54.1434392 78.2657343,54.4283051" id="Shape" fill="#FFFFFF" sketch:type="MSShapeGroup"></path>
            <path d="M77.7482517,52.845678 L77.5941014,54.2732076 L76.1857098,54.4291773 L77.6053601,54.5842325 L77.7609476,56.0644461 L77.9166678,54.5842325 L79.3112133,54.4030288 L77.9038706,54.2732076 L77.7482832,52.845678" id="Shape" fill="#FFFFFF" sketch:type="MSShapeGroup"></path>
            <path d="M74.6468531,63.4598305 C74.6468531,63.7447104 74.4136643,63.9787212 74.1304545,63.9787212 C73.8472343,63.9787212 73.6135315,63.7446964 73.6135315,63.4598305 C73.6135315,63.1749541 73.8472448,62.9409398 74.1304545,62.9409398 C74.4136748,62.9409398 74.6468531,63.1749647 74.6468531,63.4598305" id="Shape" fill="#FFFFFF" sketch:type="MSShapeGroup"></path>
            <path d="M74.1328671,61.8772034 L73.9772762,63.3047331 L72.5697937,63.4607062 L73.9899336,63.6168095 L74.1456503,65.0960032 L74.3012413,63.6168095 L75.6954021,63.4350817 L74.2870105,63.3047331 L74.1328601,61.8772034" id="Shape" fill="#FFFFFF" sketch:type="MSShapeGroup"></path>
            <path d="M36.1048951,20.575911 C36.1048951,20.8607874 35.8717098,21.0948017 35.5884965,21.0948017 C35.3042273,21.0948017 35.0715734,20.8607769 35.0715734,20.575911 C35.0715734,20.2910346 35.3042378,20.0570203 35.5884965,20.0570203 C35.8717168,20.0570203 36.1048951,20.2910452 36.1048951,20.575911" id="Shape" fill="#FFFFFF" sketch:type="MSShapeGroup"></path>
            <path d="M35.5874126,18.9925805 L35.4322133,20.4200047 L34.0238217,20.576108 L35.4450105,20.7311597 L35.6002063,22.2114084 L35.7547517,20.7311597 L37.1499615,20.5504835 L35.7415699,20.4200011 L35.5874196,18.992577" id="Shape" fill="#FFFFFF" sketch:type="MSShapeGroup"></path>
            <path d="M55.3251748,8.01266525 C55.3251748,8.29754165 55.091465,8.53208347 54.8082517,8.53208347 C54.5250315,8.53208347 54.2929021,8.2975311 54.2929021,8.01266525 C54.2929021,7.72778886 54.5250455,7.49324703 54.8082517,7.49324703 C55.091472,7.49324703 55.3251748,7.72779941 55.3251748,8.01266525" id="Shape" fill="#FFFFFF" sketch:type="MSShapeGroup"></path>
            <path d="M54.8076923,6.42792797 L54.6535385,7.85587966 L53.2451469,8.01198297 L54.6663357,8.16795614 L54.820486,9.64778284 L54.9760769,8.16795614 L56.3707622,7.98570432 L54.9623706,7.85587966 L54.8076958,6.42792797" id="Shape" fill="#FFFFFF" sketch:type="MSShapeGroup"></path>
            <path d="M31.958042,71.7703814 C31.958042,72.0552578 31.7248531,72.2893072 31.4416434,72.2893072 C31.1573776,72.2893072 30.9241958,72.0552542 30.9241958,71.7703814 C30.9241958,71.4860184 31.1573846,71.250928 31.4416434,71.250928 C31.7248636,71.250928 31.958042,71.4860044 31.958042,71.7703814" id="Shape" fill="#FFFFFF" sketch:type="MSShapeGroup"></path>
            <path d="M31.4538462,70.1842373 L31.2993007,71.612189 L29.8912937,71.7682255 L31.3120979,71.923752 L31.4671643,73.4035787 L31.6218392,71.923752 L33.0169091,71.7425658 L31.609042,71.612189 L31.4538462,70.1842373" id="Shape" fill="#FFFFFF" sketch:type="MSShapeGroup"></path>
            <path d="M99.8671329,4.05891102 C93.5839161,22.8084703 68.4125874,37.2866949 47.2237762,51.1086568 C34.4409091,59.44875 21.7496503,69.0489661 13.0125874,77.2181356 C10.7095804,79.3724428 13.4818531,76.4127894 12.5992657,77.3223393 C24.7922727,63.2007333 38.8181469,54.7895978 46.5688462,49.4955342 C59.6768881,40.5382164 67.1324825,38.2806867 89.7471678,17.3284622" id="Shape" fill="#EE293D" sketch:type="MSShapeGroup"></path>
            <path d="M6.12412587,50.5104237 C3.86762238,51.6207597 1.84615385,52.7179424 0.131118881,53.7888886 L1.17468531,54.1708644 C2.67454545,53.2417216 4.47534965,52.2726614 6.37223776,51.4185352" id="Shape" fill="#EE293D" sketch:type="MSShapeGroup"></path>
            <path d="M18.0374126,71.4925424 C15.9746503,73.3033843 13.8426573,75.2363347 11.7041958,77.2624492 L11.6097448,78.6940585 C13.5677168,76.6654822 15.9730315,74.4744229 18.7489056,72.1497195" id="Shape" fill="#EE293D" sketch:type="MSShapeGroup"></path>
            <path d="M55.6608392,63.3050847 C73.2758741,70.5936102 70.2188811,52.1749958 60.8293706,38.0720297 C55.5076923,30.0822246 48.9447552,23.7439788 44.1895105,20.2129619 C38.6370629,16.089339 38.0951049,15.7474915 38.0951049,15.7474915 C50.4944056,21.6668686 61.7587413,36.2038263 66.4066434,46.9132881 C68.5535315,51.8577669 74.4066434,71.4236102 55.7643357,63.5132881" id="Shape" fill="#FFFFFF" sketch:type="MSShapeGroup"></path>
        </g>
    </g>
</svg>