<?xml version="1.0" encoding="utf-8"?>
<!-- Generator: Adobe Illustrator 16.0.0, SVG Export Plug-In . SVG Version: 6.00 Build 0)  -->
<!DOCTYPE svg PUBLIC "-//W3C//DTD SVG 1.1//EN" "http://www.w3.org/Graphics/SVG/1.1/DTD/svg11.dtd">
<svg version="1.1" id="Layer_1" xmlns:sketch="http://www.bohemiancoding.com/sketch/ns"
	 xmlns="http://www.w3.org/2000/svg" xmlns:xlink="http://www.w3.org/1999/xlink" x="0px" y="0px" width="70px" height="60px"
	 viewBox="100 173.666 70 60" enable-background="new 100 173.666 70 60" xml:space="preserve">
<title>Rectangle 15 + Rectangle 17 + Rectangle 17</title>
<desc>Created with Sketch.</desc>
<g>
	<defs>
		<rect id="SVGID_1_" x="100" y="170.832" width="70" height="66.666"/>
	</defs>
	<clipPath id="SVGID_2_">
		<use xlink:href="#SVGID_1_"  overflow="visible"/>
	</clipPath>
	<g id="Page-1_2_" sketch:type="MSPage" clip-path="url(#SVGID_2_)">
		<g id="Group_2_" transform="translate(-40.000000, -80.000000)" sketch:type="MSLayerGroup" opacity="1">
			<g id="Rectangle-15-_x2B_-Group-_x2B_-Group-2_2_" transform="translate(40.000000, 80.000000)" sketch:type="MSShapeGroup">
				<g id="Rectangle-15-_x2B_-Rectangle-17-_x2B_-Rectangle-17_2_">
					<path id="Rectangle-15_2_" d="M110,173.666h50c2.762,0,5,2.238,5,5v50c0,2.762-2.238,5-5,5h-50c-2.761,0-5-2.238-5-5v-50
						C105,175.904,107.239,173.666,110,173.666z"/>
					<path id="Rectangle-17_5_" d="M173,183.666h94c1.656,0,3,1.344,3,3v34c0,1.656-1.344,3-3,3h-94c-1.656,0-3-1.344-3-3v-34
						C170,185.01,171.344,183.666,173,183.666z"/>
					<path id="Rectangle-17_4_" d="M3,183.666h94c1.657,0,3,1.344,3,3v34c0,1.656-1.343,3-3,3H3c-1.657,0-3-1.344-3-3v-34
						C0,185.01,1.343,183.666,3,183.666z"/>
				</g>
			</g>
		</g>
	</g>
</g>
</svg>
